<?xml version="1.0" encoding="utf-8"?>
<!-- Generator: Adobe Illustrator 12.0.1, SVG Export Plug-In . SVG Version: 6.00 Build 51448)  -->
<!DOCTYPE svg PUBLIC "-//W3C//DTD SVG 1.1//EN" "http://www.w3.org/Graphics/SVG/1.1/DTD/svg11.dtd" [
	<!ENTITY ns_flows "http://ns.adobe.com/Flows/1.0/">
	<!ENTITY ns_extend "http://ns.adobe.com/Extensibility/1.0/">
	<!ENTITY ns_ai "http://ns.adobe.com/AdobeIllustrator/10.0/">
	<!ENTITY ns_graphs "http://ns.adobe.com/Graphs/1.0/">
	<!ENTITY ns_vars "http://ns.adobe.com/Variables/1.0/">
	<!ENTITY ns_imrep "http://ns.adobe.com/ImageReplacement/1.0/">
	<!ENTITY ns_sfw "http://ns.adobe.com/SaveForWeb/1.0/">
	<!ENTITY ns_custom "http://ns.adobe.com/GenericCustomNamespace/1.0/">
	<!ENTITY ns_adobe_xpath "http://ns.adobe.com/XPath/1.0/">
	<!ENTITY ns_svg "http://www.w3.org/2000/svg">
	<!ENTITY ns_xlink "http://www.w3.org/1999/xlink">
]>
<svg  version="1.1"
	 xmlns:x="&ns_extend;" xmlns:i="&ns_ai;" xmlns:graph="&ns_graphs;" i:viewOrigin="90.9307 719.0884" i:rulerOrigin="0 -1" i:pageBounds="0 793 576 1"
	 xmlns="&ns_svg;" xmlns:xlink="&ns_xlink;" xmlns:a="http://ns.adobe.com/AdobeSVGViewerExtensions/3.0/"
	 width="329.195" height="329.193" viewBox="0 0 329.195 329.193" overflow="visible" enable-background="new 0 0 329.195 329.193"
	 xml:space="preserve">
<metadata><?xpacket begin="﻿" id="W5M0MpCehiHzreSzNTczkc9d"?>
<x:xmpmeta xmlns:x="adobe:ns:meta/" x:xmptk="3.1.1-111">
   <rdf:RDF xmlns:rdf="http://www.w3.org/1999/02/22-rdf-syntax-ns#">
      <rdf:Description rdf:about=""
            xmlns:dc="http://purl.org/dc/elements/1.1/">
         <dc:format>image/svg+xml</dc:format>
      </rdf:Description>
      <rdf:Description rdf:about=""
            xmlns:xap="http://ns.adobe.com/xap/1.0/"
            xmlns:xapGImg="http://ns.adobe.com/xap/1.0/g/img/">
         <xap:CreatorTool>Adobe Illustrator CS2</xap:CreatorTool>
         <xap:CreateDate>2007-03-12T03:14:41-07:00</xap:CreateDate>
         <xap:ModifyDate>2007-03-12T03:14:41-07:00</xap:ModifyDate>
         <xap:MetadataDate>2007-03-12T03:14:41-07:00</xap:MetadataDate>
         <xap:Thumbnails>
            <rdf:Alt>
               <rdf:li rdf:parseType="Resource">
                  <xapGImg:width>256</xapGImg:width>
                  <xapGImg:height>256</xapGImg:height>
                  <xapGImg:format>JPEG</xapGImg:format>
                  <xapGImg:image>/9j/4AAQSkZJRgABAgEASABIAAD/7QAsUGhvdG9zaG9wIDMuMAA4QklNA+0AAAAAABAASAAAAAEA&#xA;AQBIAAAAAQAB/+4ADkFkb2JlAGTAAAAAAf/bAIQABgQEBAUEBgUFBgkGBQYJCwgGBggLDAoKCwoK&#xA;DBAMDAwMDAwQDA4PEA8ODBMTFBQTExwbGxscHx8fHx8fHx8fHwEHBwcNDA0YEBAYGhURFRofHx8f&#xA;Hx8fHx8fHx8fHx8fHx8fHx8fHx8fHx8fHx8fHx8fHx8fHx8fHx8fHx8fHx8f/8AAEQgBAAEAAwER&#xA;AAIRAQMRAf/EAaIAAAAHAQEBAQEAAAAAAAAAAAQFAwIGAQAHCAkKCwEAAgIDAQEBAQEAAAAAAAAA&#xA;AQACAwQFBgcICQoLEAACAQMDAgQCBgcDBAIGAnMBAgMRBAAFIRIxQVEGE2EicYEUMpGhBxWxQiPB&#xA;UtHhMxZi8CRygvElQzRTkqKyY3PCNUQnk6OzNhdUZHTD0uIIJoMJChgZhJRFRqS0VtNVKBry4/PE&#xA;1OT0ZXWFlaW1xdXl9WZ2hpamtsbW5vY3R1dnd4eXp7fH1+f3OEhYaHiImKi4yNjo+Ck5SVlpeYmZ&#xA;qbnJ2en5KjpKWmp6ipqqusra6voRAAICAQIDBQUEBQYECAMDbQEAAhEDBCESMUEFURNhIgZxgZEy&#xA;obHwFMHR4SNCFVJicvEzJDRDghaSUyWiY7LCB3PSNeJEgxdUkwgJChgZJjZFGidkdFU38qOzwygp&#xA;0+PzhJSktMTU5PRldYWVpbXF1eX1RlZmdoaWprbG1ub2R1dnd4eXp7fH1+f3OEhYaHiImKi4yNjo&#xA;+DlJWWl5iZmpucnZ6fkqOkpaanqKmqq6ytrq+v/aAAwDAQACEQMRAD8A9U4q7FXYq7FXYq7FXYq7&#xA;FXYq7FXYq7FXYq7FXYq8w/Orz/8AojTToOnS01O/T/SXU7w27bH5NJ0HtU+GbTs3S8cuOX0j73B1&#xA;mfhHCOZd+Svn/wDS+mjQdRlrqdgn+jOx3mt12HzaPofah8ce0tLwS44/SfvXR5+IcJ5h6fmrc52K&#xA;uxV2KuxV2KuxV2KuxV2KuxV2KuxV2KuxV2KuxV2KuxV2KuxV2KuxV2KsZ/MnzBcaD5L1HUbWT0rx&#xA;FSO1cAEiSR1QEBqg8QS30Zk6PEMmURPJp1GThgSGG+RPz107UfTsfMoSwvT8K3y7W8h/y619Mn/g&#xA;fl0zN1PZko7w3Hd1cbBrQdpbF6ujo6K6MGRgGVlNQQdwQRmpIc9vFXYqknnLzXY+V9Bn1S6ozKOF&#xA;tBWhlmYfAg/WT2Fcv0+A5ZiIas2UQjZfLz3F9r+sXGo6hIZZp3MtxJ4k9FHgKbAdhnVRgIRERyDo&#xA;MkzI2ebcdxfaBrNvqOnyGKaBxLbyeBHVT4imxHcYygJxMTyKwmYmxzfUHk3zVZeZ9Bg1S1orMOFz&#xA;BWpimUfGh/WD3GcrqMBxTMS7/DlE42E7yhtdirTuiIzuwVFBLMTQADckk4q8s88fnhp2n+pY+XAt&#xA;9eD4WvW3t0P+RSnqH/hfnm103ZhlvPYd3VwM+uA2juWYflzr0+u+TtP1C5k9W7ZWjuX2BMkblCSF&#xA;oPiAB+nMPWYhjyGI5ORpsnHAE82SZjN7sVdirsVdirsVdirsVdirsVdirsVdirsVdirsVdirsVeR&#xA;/wDORWq+loWl6Ypo13cNOwH8sCcaH/ZSj7s2/ZELmZdw+9wNfL0gPFYdJM1mkqNSU1PE9CK7ZvOJ&#xA;1Fsk8mfmb5n8oTC2qbvTAfj0+cmgHjE+5T6Ph9sxNTooZd+Uu9ysOqlDzD3/AMoefvLnmq256dPx&#xA;ulFZrKWizJ/sa/EP8pds0Go0s8R9Q273bYs8ZjZkMssUMTyyuI4o1LyOxoqqoqSSegAzHAtuJfMP&#xA;5l+dp/N/mKlsW/RdqTFp8RqOQr8UrA93p9ApnT6LTDFDf6jzdHqc/HLyCBtIUtoVjXtux8T45knd&#xA;xHXUKXEJjbvup8D44AqYflr52n8oeYaXJb9F3REV/EKniK/DKoHdK/SK5j63TeLDb6hycvTZ+CXk&#xA;X05FLFNEksTiSKRQ8bqaqysKggjqCM5gineApB5u8+eXvK1vz1GflcsKw2UVGmf/AGP7I/ym2zI0&#xA;+lnlPpG3e05s8cY3eCecfzL8y+bJTbVNpppPwafCTQ+8r7F/p29s3+m0UMW/OXe6jNqpT8gxuTTj&#xA;FatIzVkFDxHQCuZVuNb2n/nHzVPV0PU9MY1a1uFnUH+WdONB9MR+/NH2tCpiXePudt2fL0kPV81L&#xA;sHYq7FXYq7FXYq7FXYq7FXYq7FXYq7FXYq7FXYq7FXYq+c/z+1T6352jslNV0+1jjZfCSUmU/erL&#xA;nRdlQrFfeXUa6VzruY1CPThSP+VQPuGZ7r1s8MM6cZFr4HuPkcVS4Q3+m3KXdjM8csJ5RTxEpIhH&#xA;cFdx9GEgSFFlGVGwyjWvzf8ANOseVjoV4U5SMBcXyfBJLEB9hlHw7n7RFK9Kda4mPs/HDJxj5OVP&#xA;VzlDhLHtMtfST1XH7xxt7DMsuISj+eBi7niqB1K29VPVQfGvX3GEFkCyTRPzd80aR5XGhWhTlGxF&#xA;vfP8UkURH2FU/Dsfsk1p0p0ph5ez8c8nGfk5cNXOMeEMXZL7ULl7u9meWWU8pZ5WLyOfEltzmYAI&#xA;ig4spEmyjoY4oV4xinie5wMW5fjjZP5gR9+Kss/IfU/qvnOSyY0W/tpI1XxkjIlH/Cq2YHakLxX3&#xA;Fz9BKp13h9C5zruHYq7FXYq7FXYq7FXYq7FXYq7FXYq7FUr8yeZNM8u6YdT1MutmrpHJJGhfjzNA&#xA;SBvSuW4cMskuGPNhkyCAspVp35o/l/qFPQ1u3Qt0FwWtzX/nsI8tnos0ecT97XHU4z1ZHa3tndx+&#xA;raTx3Ef88Tq67+6k5jyiRzDcCDyVsil2KvkjzbqX6X88apeg8o5ryT0z4xRtxT/hFGddp4cGOI8n&#xA;n88uKZK/nk2h3PFXc8VQz2du0ok40INSB0OG02ieeBDueKu54q7niqHS1gWQvSpJqAegw2tojngV&#xA;3PFXc8VVfKOo/orznpl6TxSK7j9Q+Ebtxf8A4Rjlephx45DybsEuGYPm+r85J6F2KqVzeWlrH6l1&#xA;PHBH/PKyou3uxGGMSeQQSBzY9f8A5l+RLGvrazbuR1EBM5/5JB8yYaLLLlE/c0y1OMdU08veYdO1&#xA;/ThqOnF2tGdkR3Upy4GhIB3pXKs2GWOXDLmzx5BMWOSZZU2OxV2KuxV2KuxV2KuxVi35pad+kPy/&#xA;1uCnIpbm4A71t2E3/MvMrRT4c0T5/fs0amN4y+Ura3MxYBgCBXfOrJdFaIjt7+3kEkDlJB0eNipH&#xA;07YDR5qJJ5Y/mB+YOmkehrN5QdFlczqPol9Rcx56TFLnEN0dRMciyC0/Prz5DE0U5tbospX1ZIuD&#xA;gkfaHpMi1H+rmPLsvEeVhuGuyME04fvi38o/XmwLhFMeeRQ7nirueKu54q7nirueKu54q7nirueK&#xA;u54q7nirueKoW6H7wN4jCFZ7dfnn54liWOA21qVUL6iRc3JA+0fULrU/LNfHszEOdlzTrsh7kgvv&#xA;P/nrUK+vrF3Q9Vicwqfoi4DMiGkxR5RDRLUZDzJSST61PIZJnaRz1d2LH7zXLwAOTUTam6cCBWtc&#xA;kEPqH8tbD6j5E0aGlC9uJyPecmX/AI3zldbPiyyPn9zv9NGsYZNmK3uxV2KuxV2KuxV2KuxVRvbW&#xA;O7s57SX+7uI3ifv8LqVP68lGVEFBFinxrBHJbXzwSCkiFo3HgVO/4jOyuxbzkgjuWBi7lirTcG+0&#xA;AfmK4q0ixpXiAtetMVXcsVdyxV3LFXcsVdyxV3LFXcsVdyxV3LFXcsVdyxV3LFWjxbqK0xVsEDoK&#xA;Yq7liruWKrUjee4SGMVeRlRB7saD9eJNC0gW+v7O2jtbSC1j/u4I1iTt8KKFH6s42UrJL0gFClXA&#xA;l2KuxV2KuxV2KuxV2KuxV8l/mFYHTvzA1mClB9ceZR4LOfVH/CyZ1mknxYonydDqI1MhLq5e47q4&#xA;q6uKurirq4q6uKurirq4q6uKurirq4q6uKurirq4q6uKurirq4q6uKurirq4qnv5fWH1/wA76Nb0&#xA;5D60krDxWE+q34JmPq58OKR8m7TxvIB5vqjOUegdirsVdirsVdirsVdirsVdir5s/Py0ih8+GeNl&#xA;Y3drFJJxIJDpyio3geMa50nZcrxV3F0+tH7z4MKVqqD4iubBwm64FdXFXVxV1cVdXFXVxV1cVdXF&#xA;XVxV1cVdXFXVxV1cVdXFXVxV1cVdXFXVxV1cVZ/+RtrFL53E8jKptraV4+RAJd6R0XxPFzmv7TlW&#xA;Ku8uXoR+8+D6IznHdOxV2KuxV2KuxVjHmH8zPJWgXElrqWpKl5FQPaxo8sgJAYAhFIWoP7RGZWLR&#xA;5cguI2aMmohHYndhGq/85HaDFyXS9LubthsGnZIF+Y4+s34DM2HZEz9RA+1x5a+PQMO1X/nILzvd&#xA;1WyjtdOU/ZaOMyyD6ZSyH/gMzIdlYhzsuPLXTPLZiOp+c/Our1F9q13MjdYvUZIz/wA804p+GZcN&#xA;NjhyiHHlmnLmUoW0kPUgZfbUikHFAta02rkUN1xV1cVdXFXVxVm/lr8ofN2u2cd6qxWNpKOUMl0z&#xA;KzqejKiq7UPatK5g5u0MeM1zPk5WLRzmL5BLPOnkbVPKVzbQX88E5ulZ4jAzGgQgHkGVadct02qj&#xA;mBIB2a82A4zumnlr8oPN2u2aXoWKxtJQGhe6ZlZ1I2ZUVXND/lUyrN2hjxmuZ8mzHo5zF8lPU/yo&#xA;8z2Wv2eiRtBd3V7G00bRMwRI0NGaQuq8afThhr4SgZ8gES0khIR6lB+b/wAuvMflWGK41ERS2szc&#xA;FuLdi6B6E8G5KjA0B7ZPT6yGXaPNjm00sfNi9cymh1cVVLeGa4njt4EMk0zLHFGu5ZmNFA9yTgJo&#xA;WUgWzPWfyh846Toz6rcJBJFChkuIIZC8sSD7TMOIUgd+LHMPH2hjnLhDkz0c4xssIrma4rq4q6uK&#xA;p55T8oat5ovZrPTDEJoI/Wf1mKDjyC7EBt6tlGfURxC5NuLCchoK/m/yJrflT6p+lGhP131PR9Fy&#xA;/wDdceVaqv8AvwYNPqo5b4eic2CWOr6scrmQ0uxWk60zzp5r0ygsdWuYkXpEZGeP/gH5L+GUz02O&#xA;XOIbI5px5Esu0z89fONtRbxLa/UfaZ4/Tc/TGVX/AIXMSfZeI8rDkR18xzoss0z8/wDRJaLqWm3F&#xA;qx2LQsk6/M8vSP4HMOfZMh9JBcmPaETzDMtC/MPyfrk8dtp+oK13J9i2kV45CQKkAOADsOxzCy6P&#xA;JjFyGzk49TCewO7I8xm92KvJPz58h/pHTR5msI63tgnG+VeslsN+fuYyf+B+Qzbdl6rhlwHkeXvc&#xA;DW4LHEOYeCWyxMSGFW7Zvy6pFKqr9lQPlkULq4q6uKurirq4qmNr5c8xXcPrWml3dxDSvqRQSutP&#xA;GqqRlcs0AaJA+LMY5HkCgZ4Li3laKeNoZV+1HIpVh8wd8mCDyYkUnXkrRH1fzNpls8DS2b3MS3RC&#xA;kr6YYFgxHSqjKdTl4IE9abMMOKQHS30l5y1u50Hyzd6jZW/1m6hVVtrcKzAu7BBUJvRa1PyzmtPi&#xA;GSYiTQd3mmYRJDxCPUvMPnjznokWvWQWOCZI5vThkjHpFubB6lqcgKZvDCGDFLgLq+KWWY4g9u86&#xA;a7d6D5au9Rsbb61dRBUt4ACw5OwUEhd+K1rtmj02IZJiJNB2mbIYRJDxnTfzU8zjzha6nqmn+vLB&#xA;bvay2kEbxyGGQhywDctwyg5up6GHhmMT1t1kdVLjBIVfzS/MeXzDpVvp0Ol3FjaiYTSzXS8WZ1Vg&#xA;qKBtT4iTvg0Oj8ORkSCfJOq1PGKqnmVc2bgphZ+XfMN7GJbLS7u5iIqHhglkWnjVVOVyzQjzIHxZ&#xA;jHI8gXWZ1TRtZs7lrZ4721ninhhmRlJeNwyjiaHcjGXDOJF7EKLjIHqHrXmf84Li98tXlnbaDeW9&#xA;zdQPDNNOv7qJZF4uwIFWoCaVAzU4OzxGYJkCAXYZdZcSAC8VAJIAFSdgBm6dYmcXlfzPNEZYdIvZ&#xA;IgKmRLeVlA8ahaZUc8BzkPm2DFI9Cl80M0EjRTRtFKuzI4KsPmDvlgIPJgRT07/nH3/lJtR/5gj/&#xA;AMnUzWdrf3Y97ndn/Wfcmn/ORX/TP/8AR5/zIyrsj+L4fpbO0f4fj+h41XNy6x1cVdXFXVOKrlJO&#xA;FXu/5KeSfqGnnzFex0vL5eNmrdUtzvz+cn/Efnmg7T1PEeAchz97tdDgocR5l6jmqdg7FWnRJEZH&#xA;UMjAqysKgg7EEHEFXyv+afkiTyl5mZbdT+ir0tNp7+Ar8cR94yafKmdTotT4sN/qHN0epw8EvIsa&#xA;SQOoYZluOurgV1cVdXFXs/5K/l9p1zYf4l1WBblpHZdOhkAZFEZKtKVOxbkCFr0pX5abtLVyB4Im&#xA;u92Wj04I4j8GUea/zh8veXdaOkvbzXcsPH608PALHyAPEciOTAHcfjmJg7PnkjxXTfl1cYSpOde8&#xA;veXfO/l6NnCSR3MQlsL5R+8jLiqsp2P+sp+nKcWaeCfu5hsyY45YvNPyg8xWnlvV73yrqMMx1O7v&#xA;fQRo1UxK8QKNzJZW6jspzZ9oYTkiMkfpAcLSZBAmB5kvXPMvmCy8vaJc6xepJJbWvD1EhCtIfUkW&#xA;MUDMg6uO+ajDiOSQiOZdjkyCEeIsD8q/mx5d1LzdcW8FteK+sPBHbF0iAUxxlT6lJDT6K5n59BOO&#xA;MEkem3ExaqJmee7OfNHmWx8t6NLq19HLJbQsiskAVnq7BRQMyDqfHMHBhOSXCOblZcghGy8r8oeZ&#xA;LHzH+cz6tYpLHbTWrKqThVcFIVQ1Cs46jxza6jCcem4Tzv8AS4GLIJ57Cb/85B/8o1pv/MZ/zKfK&#xA;eyfrPubNf9I96D/Jr8utObTI/MmrQLcT3DE6fBIOSRohI9QqdizMPh8Bv3yfaOslxcEdu9jo9OK4&#xA;iyjzX+bvlby5qDabIs15eRU9ZLYKVjJ34szMvxU7CuYuDs/JkHFyDfl1cIGuZeZebfO9j5r89+Xb&#xA;nT1lSzt5LdBHOoVxI1xV9lLDpx75tNPpjixSB5m/ucHLmGTJEjk9k/MH/lB9c/5g5v8AiJzS6T+9&#xA;j73Zaj+7PueD/lZ5u0byzrVzearF6kD25ELpGJJVlDCgQmnHkvKu4zfa7TyyxAj3uq0uUQlZel6b&#xA;+dsV/dqsHl6/ksS1Guoh6rKK0qURSNu/xZrJ9m8I3kLc2Ots/SaTv80/KWn655XvbholGo2EL3Fr&#xA;c0AcekC7Rlv5WAIp475TodQYZAOhbdViEoE9Q83/AOcfD/zs+o/8wR/5Opmy7W/ux73C0H1n3Jp/&#xA;zkX/ANM9/wBHn/MjKuyP4vh+ls7Q/h+P6HjNc3LrXVxV1cVcNzTFWZ/ll5LbzN5gSOZT+jLOkt83&#xA;iK/DH83I+6uYmt1PhQ2+o8m/S4fEl5B9MIiIioihUUAKoFAANgABnLu9bxV2KuxVjf5geTrbzZ5b&#xA;n016JdL+9sZz+xMoPH/Yt9lvY5k6XUHFMS6dWnPiE40+UJYLmwvZrO6jMM8DtFPE2xR0PFgfkRnV&#xA;giQscnREEGiqcsVdyxV3LFX1J+VUkUn5faM0VOIhZTT+ZZGDf8MDnLa4fvpO70v92Hz5+YUFzb+e&#xA;NcS4BDtezSLX/fcjl4/+EYZ0OkIOKNdzqc4Imfe+g/yqguYPy+0ZLiokMTSCux4SSu8f/CMM57XE&#xA;HNKnbaUEYw8kgmil/PblEQU/SjLUdKrVW/EZtyK0v+a4A/v/APOep/nJ/wCS31f/AKN/+oqLNV2d&#xA;/fR+P3FztX/dn8dXhP5aH/nfdE/5iV/Uc3us/upe51en/vB73t/52f8Akvb7/jLB/wAnVzSdm/3w&#xA;+Ls9Z/dl5V+Rp/536H/mHn/4jm17T/uT7w4Gi/vGd/8AOQpp5a03/mN/5lPmB2T9Z9zla/6R72be&#xA;QZIZPJOhNDTgLG3U0/mWMK//AAwOYWqBGWV95crB9A9z5n85Wd9Y+atVt74N9ZF1KzM37YdyyuPZ&#xA;gajOm08hLHEjlTpcsSJG1Hywf+dl0n/mNt/+Tq4c30S9xRj+oe99N/mF/wAoPrv/ADBTf8ROcxpP&#xA;72Pvd1qPoPueYfkh5D0nU7WfX9UhW6EUxt7S2kAaMMiqzSMp2b7QC19/bNp2lqpRIhHZwtFgEhxF&#xA;lfnb84tN8ras2jQaa97c2yp6w9QQRpzQOqqeMhPwsO2Ymm7PlljxE0D8W/NqxA8NWy7zJIZPKWqS&#xA;FeBewnYqeoJhY0zEwj94P6w+9yMn0H3PG/8AnHs18z6j/wAwR/5Opm57W/ux73XaD6z7k0/5yNNP&#xA;8Pf9Hn/MjKuyP4vh+ln2h/D8f0PF+Wbp1zuWKu5Yqi7G0uLq4itreMy3Nw6xwxLuWZjRVHzORlIA&#xA;WeSACTQfUnkXynb+WPL8GnpRrlv3t7MP25mHxfQv2R7Zyuq1ByzMunR32DCMcaZBmO3OxV2KuxVb&#xA;LLFDE8szrHFGC0kjkKqqBUkk7ADCBakvl/8AOLW/Kms+azeaAWkfh6d/cgARSyJsrx9z8OxboaCn&#xA;iem7Px5IY6n8HS6ucZSuLDY2YqK5mlxl1Til1Tir0n8p/wA0ovLPPStXDtpEz+pHMgLNBIdmPEbl&#xA;G703H05rddovF9Ufq+9zNLqeDY8nqV/N+UXmOaPU7650y6miUUlmnSNwo3AkVmQkezjNXEajGOEC&#xA;Q+Dmy8Ge5pKfO350eXtKsJLPy/Ml/qTLwhkiFbeHagbl9luPZVqPHLdN2dORue0fta82rjEVHcvH&#xA;PIWowW3nfSr6/nEUKXIkuLiVqAVrVmY5uNVEnFIDudfhNTBL2P8ANXzn5U1HyFqlnYata3N3L6Hp&#xA;wRSKztxuI2NAPBQTmn0OnyRygmJA3+52GpywOMgF43+X97a2XnTSLq7lWC2huFaWaQhVVaHck5ud&#xA;VEyxSA506/AQJgl69+bnnHytqXke8tNP1W2urp5ISkMUisxCyqTQDwGajQafJHKCQQHP1WWMoEAv&#xA;N/ye1bTtM86xXeo3MdpbCCZTNKwVasuwqfHNj2hCUsVRFlw9LIRnZZl+ePmjy7q/l+wh0vUbe8mj&#xA;u+bpC4chfTYVIHapzD7MwzhMmQI2cnWZIyiKPVKvyn/Ni10G1Gh64WGmhi1pdqCxhLmrI6jcoSS1&#xA;QKg/hbrtCch44/U16XUiA4ZcnqV7qn5W69Glxf3ekXojWqyXEkHNF32PMh1Hsc1cYZ8ewEh83NlL&#xA;FLc0Xk/5gXPkyLz15em0CazWxtmgW7+phRCnp3HPmzJ8BqG3Ptm20oyHFITuzfP3ODnMOMcNU9H8&#xA;8eefJ935P1i1tdYtJria0lSKJJVLMxUgAAHrmt02myDJEmJq3MzZoGBAI5MF/JX8xdH0a2n0LWJR&#xA;awyyme1u3H7sMyqrI5H2fsggnbrU9Mzu0dJKZE47uLo84iOEs68wXv5QLfr5j1G40+61CIK0ckUo&#xA;nkcoPgPpRswcjiACy7eOYOKOorgjxAOVkOG+I1aKvPzE8laj5cnpqtrHJeWbUtZZUEitLEf3biuz&#xA;CtDkY6TLGY2OxTLPAx58w8n/ACO1zSNI8w38+qXkVnDJaFEkmYIC3qoaAnvQZte08cpwAiL3cHRz&#xA;EZGz0TH8+PMWh6x+g/0Vfw3vofWvW9Bw/Dn6PHlTpXicr7LxShxcQrl+lnrZxlVG+byepzbOC6px&#xA;VfHQtucUFnv5S6x5Z0jzMLvWyUbhwsrggGKKRtmZ+4+HYHtU18Rg6/HknCofFv0k4Rncn0hFLFLG&#xA;ssTrJE4DI6kMrKdwQR1Gc0RTvAV2BXYq7FUi82+dfL/lWx+tarcBGcH0LVKNNKR2RP1k7Dxy/Bpp&#xA;5TUQ1Zc0YCy+c/Pn5peYPN0rQMTZ6QGrFp8RNGoagyttzb8B4Z0Wl0UMW/OXe6nNqZZPcxBEA3O5&#xA;zMtopfXAl1cVdXFXVxV1cVdXFXVxV1cVdXFXVxV1cVdXFXVxV1cVdXFXVxV1cVdXFXVxV1cVdXFX&#xA;VxV1cVdXFVWO4K7NuPHFiYs38j/mZrflh1ijb65pJNZLKQmgqakxN+wfw9sw9VooZd+Uu9uwamWP&#xA;bo9/8r+b9D8y2X1nTJwzKB69s9FliJ7Ov8Rsc57Pp54jUg7jFmjMWE6yhteV/mF+eOmaMZdN8vlN&#xA;Q1QVWS5+1bwn5j+8YeA2Hc9s2mk7NlP1T2j9rg59YI7R3LwLVNV1TWL6S/1K5e6u5TV5pDU/IDoA&#xA;OwGwzfwhGAqIoOskTI2UOKDphUBuuKXVxV1cVdXFXVxV1cVdXFXVxV1cVdXFXVxV1cVdXFXVxV1c&#xA;VdXFXVxV1cVdXFXVxV1cVdXFXVxV1cVdXFXVxVckrIaqfmMUEJto2uX2nXkd7p1w9reRbq6Gh+Xg&#xA;wPcHIZMYkKkLDEGUDYe7eRPzj07VvT0/XOFjqRoqXHSCU/M/3bHwO3v2zRars6UN4bx+12un1olt&#xA;LYoX8wvyO0zWTLqXl8Jp+qGrSW32beY/If3bHxGx7jvjpO0pQ9M94/aufRiW8di8C1XSdU0e+ksN&#xA;StntbuI0eGQUPzB6EHsRsc38JxmLibDrJAxNFC8skkF1cCXVxV1cVdXFXVxV1cVdXFXVxV1cVdXF&#xA;XVxV1cVZ35f/ACc8369o9tq1i1qLW6BaISSsr0VihqAh7rmFl7QxwkYm7DkQ0spCwxmTy1q6+ZH8&#xA;uxxifVFuDaiOM1VpFPE0Y8dvc5kjNHg4/wCGrafDPFw9WQeavyk83eWtJ/St6IJrRSonNvIzmLma&#xA;DmGVP2iBVa5j4NfjyS4RdtuTTSgLLCq5mNDq4q6uKurirq4q6uKurirq4q6uKurirq4qvjjeQ0Uf&#xA;M9sUE0nGjaHfaheR2Wn273V5LsqIKn5+CgdychkyCIuRoMADM0Hu3kT8nNO0n09Q1zhfakKMlv1g&#xA;iPyP94w8Tt7d80Wq7RlPaG0ftdrp9EI7y3L0rNW5yRebfJXl/wA1WP1XVbcOyA+hdJRZoie6P+sH&#xA;Y+GX4NTPEbiWrLhjMUXzl59/KzzB5Slad1+uaQWpHfxg0WpoBKu/BvwPjnRaXWwy7cpdzqc2mlj3&#xA;6MMzMaQWq4GTq4q6uKuriqJt9O1G5j9S3tZpo605xxswqO1QDkTMDmUiJLrbTtRurk2ttazT3Skg&#xA;wRxs8gINCOKgnY4mYAsnZRElfqOj6vpjhNSsbiydvsrcRPET8g4XGGSMuRBTKBHMIOuSYq1ra3d3&#xA;MIbWGS4mbpHEpdj9CgnAZAblIFoy+8t+Y9Pi9W/0q8tIuvqT28sa7+7qBkI5oS5EH4sjjkOYS2uW&#xA;MH1b+T//AJLfRP8AjHJ/yffOX1/99L8dHcab+7DwzV9autE/OC/1S1gN1Na6nMwthWsgLMrKKAkE&#xA;qTQ0zd48YnpxE7XF18pcOUnzZd+Yv5uy6z5VudLtdDvLNboItzdXS8VRQ6tRaVqWIpvTMTSaDgyC&#xA;RkDXc3ZtTxRoB4vXNw4KYafoGvakvLTtNur1f5reCSUbf6inITyxjzIDIQJ5BZdaNrFpOlvdWNxb&#xA;zyGiRSxOjsR2CsAThGSJFghTEjmFsmk6tFG0kllOkaCrO0TgADuSRiMkT1C8JQ0aSSOscal5HICo&#xA;oqST0AAyRKKRMmk6tFG0kllOkaCrO0TgADuSRkRkieoTwlCVyTF1cVdXFXVxVEwWjP8AE/wr4dzi&#xA;xlJnnkb8s9a8zOssa/U9JU0kvZAaGhoREv7bfh75h6rWwxbc5dzZg00sm/R7/wCV/KGh+WrL6tpk&#xA;AVmA9e5ejSykd3b+A2Gc9n1E8puRdxiwxgKCdZQ2uxV2KrZYoponimRZIpAVkjcBlZSKEEHYg4Qa&#xA;Uh8v/nFonlTRvNZs9ADRvw9S/tgQYopH3VI+4+Hcr0FRTwHTdn5Mk8dz+DpdXCMZVFgTEVzOaohr&#xA;Al2KuxV9J/8AOPX/ACgcv/MdN/xCPOd7V/vfg7PR/R8Uf5j89eRPy/vZbZ7eR9R1KRry7jtEV5CZ&#xA;WJ5ys7IPHitfwyGLTZc4u9htuznlhjPmWRWlz5Z87eWllCJf6TfKQ0cq7ggkEEdUdT3G46jMeQnh&#xA;n3SDYDHJHyfNV7+Xt5H+ZDeTYHJZ7gJDOwqfq7L6okIHXjFufcZ0UdUPB8Q932/2urOE8fC+iUtf&#xA;Kf5deVJZ44Rb2NogM0igNPPITxXk23N2Y7dh7DNAZZNRkrqfsdlUcUUu8i/mxoHnK8n02K3ktLtE&#xA;MiwT8WEsY2biRtUV3U/1yzU6GeECV2GOLUCZp5r+ev5eafozweYNJhW3tLuT0by2QURJiCyuijZQ&#xA;wU1HSvzzY9m6oz9EuYcXVYRH1B6l+T3/AJLbRP8AjHJ/yfkzWa/++l+Ojl6b+7Dxyz/8n83/AG2J&#xA;f+JNm3l/iv8AmuEP774vXPzs/wDJY6z/ANG3/UXFmp7O/vo/H7i5uq/uy8z/ACP/AC2sNcMvmDWY&#xA;hPY20npWlq4qksqgFmkB+0q1FB0J69M2XaOrMPRHmXE0uAS9R5PUfOX5n+VPJjxWFyrzXZQFLG0V&#xA;SY06LyqUVAew6+2azT6PJm3HLvLl5M8YbPJfzK/N6z8wtoU+hpcWsumXDXci3CqKSrw9IrwZwQPi&#xA;za6PQnHxCVHiFOHn1HFVdHu1nc6f5p8qpMvxWOsWhDr1IWZOLqfdakH3zSSBxZPOJdgCJx9757/K&#xA;LyzO35pR2d0nxaI88tyvg8BMS/dKy5vtdmHgWP4q+11unx/vKPR6f+fvmL9G+TV02N+Nxq8oip39&#xA;GKjykfTwU/PNb2Xi4snF/NcvVzqNd75rzonVuxV2Kq1q8azDmKg7AnscWMhs9I/KXR/LOr+Zhaa2&#xA;C7cOdlbkgRSyLuyv3Pw7gd6GvgcHX5MkIXD4tmkhCU6k+kIoooo1iiRY4kAVEUBVVRsAAOgzmibd&#xA;4AuwK7FXYq7FWN/mB5xtvKflufUno9037qxgP7czA8f9iv2m9hmTpdOcsxHp1ac+UQjb5Kvby5u7&#xA;qa7upDLc3DtLNK32mdzVmPzJzqwBEUHSbk2UPizdirsVdir6T/5x5/5QOX/mPm/4hHnO9q/3vwdn&#xA;o/o+Ly7894Zo/wAxrx3UqksNu0RI2ZREFJH+yUjNn2aR4I+Li6r6y9S/5x6trqHyHK8ylUuL6aW3&#xA;JrvGI40qPbmjZrO1SDl27nL0Y9HxSx7u0/6GNRGI5i09EHpSU2xen/AHLBE/k/j+lhf7/wDHcm3/&#xA;ADkDbXU3kDnBUx295DJc0Ff3dHTf25uuVdlkDLv3M9YPQ8n/ACLt7mX8yNPkiBMdvHcSXBHQIYHQ&#xA;V/2brm17SIGE/D73D0o9Yetfn/PBH+X0iSU5z3UCQ1NDyBLmnj8KnNV2WD4vwczVn0Jt+T3/AJLb&#xA;RP8AjHJ/yfkyrX/30vx0Z6b+7Dxyz/8AJ/N/22Zf+JNm3l/iv+a4Q/vvi9d/Oz/yWOs/9G3/AFFx&#xA;Zqezv76Px+4ubqv7sqH5Fy27/ltp6xfbjkuFn/1zMzD/AIRlyXaQPjH4I0v0B4t+dVhf2v5ianJd&#xA;hit36c1tIejRGNVHH/VKlfozcdnyBwiujg6kETNsGzNcd7//AM46eZ/rOkXvl2Z6y2LfWbRT/vmU&#xA;/GB7LJv/ALLNF2rhqQmOrsdHOwYs40HyfHpnnjzDrqoAmqJbehTsQD6//BOqtmFlz8WKMf5t/sb4&#xA;Y6mT3vDPz18xfpXzxLaRPyttJQWqU6er9qU/PkeJ/wBXN12bi4cV9ZbuBqp3P3PO82DjOxV2KuxV&#xA;N9I1G4gmiuIJDFd2zrJFKv2gymqsPkRkZRBFHk1G4mw+qvIvmy38z+X4NQSi3K/ur2EfsTKPi+hv&#xA;tD2zldVpzimY9OjvcGYZI2yDMdudirsVad0jRndgqKCzMxoABuSScQFfK35q+en81+ZHkhY/omx5&#xA;Q6enitfjl+chFflTOp0Om8KG/wBR5uk1ObxJbcmDlqnMtgA6uKurirq4q6uKvpT/AJx4P/OhS/8A&#xA;MfN/ybjzne1f734O00f0fFPPMOrflnqOsyaL5kNl+kNPKMi6gEQUlVXHpyPQEGoBWv0ZTihmjHih&#xA;dHuZzljJqXMIXzL+bPkXyzphisLm3vrmNOFpp9gysgKigVmjqkaj7/AZLDocuSW4I8yieohEbPm6&#xA;TzRrD+ZD5j9amqm5+tiUDYSBuQAB/ZHSnhtnQjDHg4P4ap1nGeLi6vojy1+cPkXzNpf1XWJodPuZ&#xA;kMd5ZXpAgYEUbjI/7tlPgxB9s0GbQZccrjuO8OyhqISG+yKsdX/J/wAnQTzade6daesAZvq0ouJn&#xA;A3AojSyU8B0yMseozGiJH7EiWKHKniX5qfmXJ5y1GKO2jaDR7It9Vif7bs2zSyAVFaCgHb6c3Oi0&#xA;ngjf6i4OfNxnyetflb558n6d5C0izvtYtLa7hjkEsEkqq6kzORUH2OarW6bJLLIiJIczBliIAEvK&#xA;7XWdKX86m1VruIab+lZJvrhYel6ZZiH5dKZs5Y5fluGt+FwxIeLfS3p/5t+d/KGpfl7qtlp+r2t1&#xA;dy/V/SgilVnbjcxM1APBVJzW6HT5I5QTEgb/AHOXqMsTAgF5n+Uv5or5QuprLUEeXRbxg8np7vDK&#xA;BT1FXuCKBh7CnSh2Wu0fiix9QcXT5+DY8nuE/mX8rPM1mn1zUNLvoFq6R3bxK6dKsEm4un3DNKMO&#xA;fGdhIe5zzPHIbkPJPzsb8vhY6VD5Xk0/1oJZfXj0/gQVlVTyd4qq1ClNzXNr2f4tkzv4uHqeChw0&#xA;xf8AKTVL7T/zB0hrNGlNzMLaeJamsMvwuTTsg+P/AGOZOugJYpW06ckTFPpzzX5gt/L3l2/1ienG&#xA;0iLIh/bkPwxp/snIGc3gxHJMRHV2uSfDEl8cXV1PdXMtzcOZJ53aWWRurO55MT8yc64AAUHSk2pV&#xA;wodXFXVxV1cVXxTGOQOO3UeIxQRb0X8sPOx8t69HNIxOlX3GK+XwFfhk+cZP3VzD1um8WG31Dky0&#xA;2bw578n0yjo6K6MGRgCrA1BB3BBGcu71vFXYq8k/Pnz5+jtNHlmwkpe36cr5l6x2x24exkI/4H5j&#xA;Nt2XpeKXGeQ5e9wNbnocI5l89OGPQbZvy62FKZqOowNjVcVp1cVp1cVp1cVp9Lf847/8oFL/AMx8&#xA;3/JuPOd7V/vfg7PSfR8XlP57H/kJWo/8Y7f/AJMJm07N/uR8fvcTVfWXn9cznHp1cVp1cVp1cVp1&#xA;cVp1cVp1cVp1cVp1cVp1cVp1cVp9Q/lLoPkzTfJtj5jtII7e4ubYNfahO9SrISkw5uaRpzU7Cnvn&#xA;N67LklkMD0Owdpp4RERJ5d+c/wCaEHma5j0fSHLaNZuXkn3AuJgKBgP5EqePj18M2XZ+jOMcUvqP&#xA;2OLqc3FsOTy+ubJxadXFadXFadXFadXFaXIkj/YUt8hXFSmNglxGCsi0Q7ipFQcWqZBfQP5Kedvr&#xA;+nny7eyVvLFeVmzdXtxtw+cf/Eflmg7T03CeMcjz97stDnscJ5h6jmqdg7FWMeYfyz8la/cSXWpa&#xA;ar3ktC91G7xSEgBQSUYBqAftA5lYtZlxionZoyaeEtyN2Ear/wA446DLybS9UubRjuFnVJ1+Q4+i&#xA;34nM2Ha8x9QB+xx5aCPQsO1X/nH3zta8mspLXUUH2VjkMUh+iUKn/D5mQ7VxHnYceWhmOW7DdW8h&#xA;+btL5HUNGuoUX7UoiZ4/+Rick/HMuGpxz5SDRLFkjzBSAwKehIy+mAmVBvhYitaYG0btVxS6uKur&#xA;irq4q6uKurirq4q6uKurirq4q6uKurirq4q6uKoh9Rv3tEsnuZWs4iTHbF2MSkkklUrxG58Mjwi7&#xA;rdNnkh65JDq4q6uKr4l9SRUrTkaVxQTQTFNNhH2mZvwGLSchZDpPkLzJqHE2GjXEqN9mUxsqf8jH&#xA;ov45RPU4485BlHHklyBZlpf5FecbkK149tYJ3V5PUcfREGX/AIbMSfamIcrLfHQTPOgyzTPyA0SK&#xA;jalqVxdMNysKpAvyPL1T+IzDn2tI/SAHJj2fEcyzLQvy88n6HPHc6fp6rdx/YuZGeSQEihILkgbH&#xA;sMwsusyZBUjs5OPTQhuBuyPMZvdirsVdirsVdir5s/Py7hl8+NBGqr9VtYkl4gAl35Skse54uudJ&#xA;2XGsV95dPrT+8eUM1WJ8TXNgwAarirq4q6uKurirq4q6uKurirq4q6uKurirq4q6uKurirq4q6uK&#xA;urirq4q6uKtxycXVv5SD92KkPYvyNuoYvO6wyKrfWraVIuQBIdaSAqex4oc13acbxX3FOhNZPg+i&#xA;M5x3TsVdirsVdirsVdirsVdirsVfIv5m6kb7zvr11WoF1JCp8Vg/cr+CZ1mkhw4ojydFmPFkPvYV&#xA;XMhm6uKurirq4q6uKurirq4q6uKurirq4q6uKurirq4q6uKurirq4q6uKurirq4q6uKvQvyz1L6n&#xA;5u0G6rQG4jidvATfum/BzmNq4cWKQ8mvCeHKPe+rc5R3zsVdirsVdirsVdirsVdiqje3UdpZz3cv&#xA;93bxvK/b4UUsf1ZKMbICCaFvibU7iSX1ZpDWSZyznxLHkc7IChToIbySyuFvdXFVyq7fZUn5CuKk&#xA;tukiU5qVr0rigEFZXFLq4q6uKurirq4q6uKurirq4q6uKurirq4q6uKqkcU0tfTQtx6098UEgc1r&#xA;pIn21K/MEYpBW1xV1cVZBoVy8cMUsZpJBJVD4FTyGRIvZx8m0rfZtncx3VpBdR/3c8ayp3+F1DD9&#xA;ecbKNEh6AGxargS7FXYq7FXYq7FXYq7FWLfmlqP6P/L/AFuevEvbm3B71uGEP/MzMrRQ4s0R5/du&#xA;0amVYy+SJoBMACaAb7Z1bpIypu30oTSCOGJ5pD0RQWJ+hcBIHNl4kjyZNpn5Zedb6n1XQLkA/ZeW&#xA;P0VP+ym4D8cx56vFHnINgw5JdCye0/ITz3LC0k62trxUt6Ty83JA2UCJXWp/1sx5dqYhystg0OR5&#xA;dqK1hDfyn8DmxaMR3S2uLkOrirq4q6uKurirq4q6uKurirq4q6uKurirq4qnOjJS3Z/52/AYHGzH&#xA;d6ndfkX54ihWSFba65KG9JJeDgkbqRIEWo+ea6PaeI87DedDkDGdS/LLzbZ1+t6DcED7TxR+sB/s&#xA;ouY/HMiGrxS5SDUcOWPQsbuNChjkMcsUkEg6oaqR9DZkCV8mHiSHNdZ2a2ysqsWVjXfthYznxPqv&#xA;8tb/AOveRNGmrUpbiAn3gJi/40zldbDhyyHn97vNNK8YZNmK3uxV2KuxV2KuxV2KuxVK/MnlvTPM&#xA;WmHTNTDtZs6SSRxuU5cDUAkb0rluHNLHLijzYZMYmKKVad+V35f6fT0NEt3K9DcBrg1/57GTLZ63&#xA;NLnI/c1x02MdGR2tlZ2kfpWkEdvH/JEiou3soGY8pE8y3AAclbIpdir4+/MHSP0b5n1zTwvFIrmU&#xA;xL/xWzepH/wpGddpp8WOJ8nRZBw5CPNhFcub3VxV1cVRKWNy8Rk40AFQD1PyxazkF0hq4tjq4q6u&#xA;KuriqKk0+6SFZeNQRUgdR8xi1jICaQtcWx1cVdXFWf8A5eaR+kPMWiaeVqstxEZV/wAhT6kn/Cg5&#xA;RqZ8OOR8nHgOLIB5vrnOSd87FVK5s7S6j9O6gjnj/klVXXf2YHDGRHIoIB5sev8A8tPIl9X1tGt0&#xA;J6mAGA/8kimZMNbljykfvaZabGeiaeXvL2naBpw07Tg62iuzojsX48zUgE70rlWbNLJLilzZ48Yg&#xA;KHJMsqbHYq7FXYq7FXYq7FXYq7FXYq7FXYq7FXzn+f8ApQtfOqXqr8Go2sbs3jJETER/wCrnRdlT&#xA;vFXcXUa6NTvveJyrwldP5SR92bJQbDcMEszcY1r4nsPnispAc080rQ5ZriKC3he7vJTxiijUuxbw&#xA;VRUk4JSAFnk48pmRoM/1r8oPNOj+Vjrt4E5RsDcWKfHJFER9tmHw7H7QFada9aYePtDHPJwD5tk9&#xA;JOMOIvL9UtPSf1kH7tzuPA5mrineyAri2uriqYaVZ+rJ6zj92h+EeLf2YWrLOtnqeiflF5o1fyuN&#xA;dtAnKRibexf4ZJYgPtqx+Hc/ZBpXrXpXAy9oY4ZOA/NYaSco8QYBq2gSRXEsE8L2l7EeMsUilCG8&#xA;GU0IOZsZAixyaxkMTRSC4t5rd+Mq0PY9j8jhciMgeTUCepMkf87AfecVJoPcvyG0sXPnJ7xl+DT7&#xA;aR1Pg8lIgP8AgWbNb2pOsVd5RoI3O+59C5zruHYq7FXYq7FXYq7FXYq7FXYq7FXYq7FXYq7FXYq7&#xA;FXYq8j/5yK0r1dC0vU1FWtLhoGI/lnTlU/7KIffm37InUzHvH3OBr4+kF87SaaJbppXakZoeI6k0&#xA;3zfOvGWhTPvIn5U6/wCZuEkEX1DSAfivpVPE/wDGJNjIfw98w9TrYYtucu5sxaeeQ30730J5Q8g+&#xA;XPKttw06DldMKTXstGmf/ZU+Ef5K7Zz+o1U8p9R27na4sEYDZkMsUU0TxSoJIpFKSIwqrKwoQQeo&#xA;IzHBpuIfLn5p+QW8sa28MaFtHvuUljIamgr8URJ/aj/VQ50+i1Xiw3+oc3SajCcctuTyy6ge3mMb&#xA;dt1PiPHM1shKxbrW3e4mWNe+7HwHjis5cIt6r+VnkFvM2tJC6FdHseL3sgqKivwxAj9p/wBVTmFr&#xA;dV4UNvqPJr0+E5Jb8n1DFFFDEkUSCOKNQkaKKKqqKAADoAM5gm3dgJB5u8h+XvNNvw1GDjcqKQ3s&#xA;VFmT/ZftD/JbbMjT6qeI+k7dzTmwRyDd4B56/KvXfLnN54vr+kk/DfRKeI/4yLuYz+Hvm/02thl2&#xA;5S7nU5dPPHv072AQ6QIb1JkasS1PE9QabZmMDluNPoj/AJx80v0tD1PU2FGurhYFJ/lgTlUfTKfu&#xA;zQ9rTuYj3D73P7Pj6SXq+al2DsVdirsVdirsVdirsVdirsVdirsVdirsVdirsVdirsVYz+ZPl+41&#xA;7yXqOnWsfq3jqklqgIBMkbq4ALUA5AFfpzJ0eUY8okeTTqMfFAgMN8ifkVp2nenfeZSl/ej4lsV3&#xA;t4z/AJdaeoR/wPz65m6ntOUtobDv6uNg0QG8ty9XRERFRFCooCqqigAGwAAzUkue3irsVSTzl5Us&#xA;fNGgz6XdUVmHO2npUxTKPgcfqI7iuX6fOcUxINWbEJxovkjzN5evbK7udNvI/S1CycoynxHge4Yb&#xA;g51cMgnESHIuliTjlRb8seXr29u7bTbOP1dQvHCKo8T4nsFG5OOSYhEyPILInJKg+tvJvlWy8saD&#xA;BpdrRmUc7melDLMw+Nz+oDsM5TUZzlmZF3WHEIRoJ3lDa7FWnRHRkdQyMCGUioIOxBBxV5Z54/I/&#xA;TtQ9S+8uFbG8PxNZNtbuf8ilfTP/AAvyza6btMx2nuO/q4GfQg7x2LMPy50GfQvJ2n6fcx+ldqrS&#xA;XKbEiSRy5BK1HwggfRmHrMoyZDIcnI02PggAebJMxm92KuxV2KuxV2KuxV2KuxV2KuxV2KuxV2Ku&#xA;xV2KuxV2KuxV2KuxV2KuxV2KvMPzq8gfpfTTr2nRV1OwT/SUUbzW67n5tH1HtUeGbTs3VcEuCX0n&#xA;73B1mDiHEOYd+SvkD9EaaNe1GKmp36f6MjDeG3bcfJpOp9qDxx7S1XHLgj9I+9dHg4RxHmXp+atz&#xA;nYq7FXYq7FXYq7FXYq7FXYq7FXYq7FXYq7FX/9k=</xapGImg:image>
               </rdf:li>
            </rdf:Alt>
         </xap:Thumbnails>
      </rdf:Description>
      <rdf:Description rdf:about=""
            xmlns:xapMM="http://ns.adobe.com/xap/1.0/mm/"
            xmlns:stRef="http://ns.adobe.com/xap/1.0/sType/ResourceRef#">
         <xapMM:DocumentID>uuid:C3C2E59FD1D911DBBF6BFB8DAD75A2AA</xapMM:DocumentID>
         <xapMM:InstanceID>uuid:C3C2E5A0D1D911DBBF6BFB8DAD75A2AA</xapMM:InstanceID>
         <xapMM:DerivedFrom rdf:parseType="Resource">
            <stRef:instanceID>uuid:C3C2E59ED1D911DBBF6BFB8DAD75A2AA</stRef:instanceID>
            <stRef:documentID>uuid:8CCCDF9BD19911DBA4A5FC68FC106931</stRef:documentID>
         </xapMM:DerivedFrom>
      </rdf:Description>
   </rdf:RDF>
</x:xmpmeta>
                                                                                                    
                                                                                                    
                                                                                                    
                                                                                                    
                                                                                                    
                                                                                                    
                                                                                                    
                                                                                                    
                                                                                                    
                                                                                                    
                                                                                                    
                                                                                                    
                                                                                                    
                                                                                                    
                                                                                                    
                                                                                                    
                                                                                                    
                                                                                                    
                                                                                                    
                                                                                                    
                           
<?xpacket end="w"?>
	</metadata>
<g id="Layer_1" i:knockout="Off" i:layer="yes" i:dimmedPercent="50" i:rgbTrio="#4F008000FFFF">
	<g>
		
			<linearGradient id="XMLID_50_" gradientUnits="userSpaceOnUse" x1="-91.3589" y1="558.1069" x2="237.8359" y2="558.1069" gradientTransform="matrix(1 0 0 -1 92.3691 723.4053)">
			<stop  offset="0" style="stop-color:#3A72B9"/>
			<stop  offset="1" style="stop-color:#4E88C7"/>
			<a:midPointStop  offset="0" style="stop-color:#3A72B9"/>
			<a:midPointStop  offset="0.5" style="stop-color:#3A72B9"/>
			<a:midPointStop  offset="1" style="stop-color:#4E88C7"/>
		</linearGradient>
		<polygon fill="url(#XMLID_50_)" points="165.608,0.701 191.107,37.107 228.596,13.231 238.223,56.621 281.996,48.912 
			274.287,92.684 317.674,102.311 293.803,139.801 330.205,165.298 293.803,190.795 317.674,228.288 274.287,237.913 
			281.996,281.685 238.223,273.979 228.596,317.366 191.107,293.491 165.608,329.895 140.108,293.491 102.618,317.366 
			92.991,273.979 49.22,281.685 56.93,237.913 13.539,228.288 37.414,190.795 1.01,165.298 37.414,139.801 13.539,102.311 
			56.93,92.684 49.22,48.912 92.991,56.621 102.618,13.231 140.108,37.107 		"/>
		
			<linearGradient id="XMLID_51_" gradientUnits="userSpaceOnUse" x1="73.2388" y1="406.0356" x2="73.2388" y2="710.1792" gradientTransform="matrix(1 0 0 -1 92.3691 723.4053)">
			<stop  offset="0" style="stop-color:#344DA1"/>
			<stop  offset="0.0259" style="stop-color:#344FA2"/>
			<stop  offset="0.3562" style="stop-color:#416DB5"/>
			<stop  offset="0.427" style="stop-color:#426FB7"/>
			<stop  offset="0.6404" style="stop-color:#4A80C2"/>
			<stop  offset="0.809" style="stop-color:#4E88C7"/>
			<stop  offset="1" style="stop-color:#69A4D9"/>
			<a:midPointStop  offset="0" style="stop-color:#344DA1"/>
			<a:midPointStop  offset="0.5" style="stop-color:#344DA1"/>
			<a:midPointStop  offset="0.0259" style="stop-color:#344FA2"/>
			<a:midPointStop  offset="0.5" style="stop-color:#344FA2"/>
			<a:midPointStop  offset="0.3562" style="stop-color:#416DB5"/>
			<a:midPointStop  offset="0.5" style="stop-color:#416DB5"/>
			<a:midPointStop  offset="0.427" style="stop-color:#426FB7"/>
			<a:midPointStop  offset="0.5" style="stop-color:#426FB7"/>
			<a:midPointStop  offset="0.6404" style="stop-color:#4A80C2"/>
			<a:midPointStop  offset="0.5" style="stop-color:#4A80C2"/>
			<a:midPointStop  offset="0.809" style="stop-color:#4E88C7"/>
			<a:midPointStop  offset="0.5" style="stop-color:#4E88C7"/>
			<a:midPointStop  offset="1" style="stop-color:#69A4D9"/>
		</linearGradient>
		<path fill="url(#XMLID_51_)" d="M142.048,46.86c0,0-23.604-15.031-34.637-22.059c-2.833,12.77-8.892,40.089-8.892,40.089
			s-27.561-4.854-40.441-7.123c2.268,12.881,7.124,40.442,7.124,40.442s-27.32,6.06-40.089,8.895
			c7.026,11.032,22.058,34.635,22.058,34.635s-22.92,16.054-33.633,23.558c10.714,7.505,33.633,23.558,33.633,23.558
			s-15.032,23.605-22.058,34.64c12.77,2.831,40.089,8.892,40.089,8.892s-4.855,27.561-7.124,40.441
			c12.88-2.27,40.441-7.12,40.441-7.12s6.06,27.319,8.892,40.085c11.034-7.026,34.637-22.057,34.637-22.057
			s16.055,22.921,23.561,33.635c7.501-10.714,23.559-33.635,23.559-33.635s23.605,15.03,34.635,22.057
			c2.834-12.766,8.895-40.085,8.895-40.085s27.562,4.851,40.443,7.12c-2.268-12.881-7.123-40.439-7.123-40.439
			s27.318-6.062,40.084-8.894c-7.021-11.034-22.053-34.64-22.053-34.64s22.916-16.053,33.631-23.558
			c-10.715-7.504-33.631-23.558-33.631-23.558s15.031-23.604,22.053-34.637c-12.766-2.833-40.084-8.893-40.084-8.893
			s4.854-27.562,7.123-40.442c-12.881,2.269-40.443,7.123-40.443,7.123s-6.061-27.319-8.895-40.089
			c-11.029,7.027-34.635,22.059-34.635,22.059s-16.058-22.921-23.559-33.635C158.103,23.939,142.048,46.86,142.048,46.86z"/>
	</g>
	<g i:knockout="Off">
		<path fill="#FFFFFF" d="M90.258,143.492c-8.58,0-15.18-5.641-15.18-15.12c0-9.48,6.24-15.54,15.72-15.54
			c8.94,0,14.94,6.18,14.94,15.06c0,10.681-7.62,15.601-15.42,15.601H90.258z M90.438,136.952c3.6,0,5.82-3.54,5.82-8.82
			c0-4.32-1.68-8.76-5.82-8.76c-4.32,0-6,4.439-6,8.819c0,4.98,2.1,8.761,5.94,8.761H90.438z"/>
		<path fill="#FFFFFF" d="M112.458,142.832v-22.62h-3.9v-6.72h3.9v-1.141c0-3.54,1.08-7.439,3.66-9.84
			c2.34-2.16,5.46-2.939,8.16-2.939c1.98,0,3.54,0.3,4.8,0.6l-0.36,7.02c-0.78-0.239-1.74-0.42-2.94-0.42c-3,0-4.26,2.34-4.26,5.221
			v1.5h5.88v6.72h-5.82v22.62H112.458L112.458,142.832z"/>
		<path fill="#FFFFFF" d="M132.917,142.832v-22.62h-3.9v-6.72h3.9v-1.141c0-3.54,1.08-7.439,3.66-9.84
			c2.34-2.16,5.46-2.939,8.16-2.939c1.98,0,3.54,0.3,4.8,0.6l-0.36,7.02c-0.78-0.239-1.74-0.42-2.94-0.42c-3,0-4.26,2.34-4.26,5.221
			v1.5h5.88v6.72h-5.82v22.62H132.917L132.917,142.832z"/>
		<path fill="#FFFFFF" d="M156.797,109.65c-3.06,0-5.04-2.159-5.04-4.859c0-2.76,2.04-4.86,5.16-4.86s5.04,2.101,5.1,4.86
			c0,2.7-1.98,4.859-5.16,4.859H156.797z M152.297,142.832v-29.34h9.12v29.34H152.297z"/>
		<path fill="#FFFFFF" d="M190.756,142.11c-1.619,0.78-4.68,1.381-8.16,1.381c-9.479,0-15.54-5.82-15.54-15.061
			c0-8.58,5.88-15.6,16.8-15.6c2.399,0,5.04,0.42,6.96,1.14l-1.439,6.78c-1.08-0.48-2.701-0.9-5.101-0.9
			c-4.8,0-7.92,3.42-7.86,8.221c0,5.399,3.601,8.279,8.041,8.279c2.159,0,3.84-0.359,5.221-0.96L190.756,142.11z"/>
		<path fill="#FFFFFF" d="M200.295,109.65c-3.06,0-5.039-2.159-5.039-4.859c0-2.76,2.039-4.86,5.16-4.86
			c3.119,0,5.039,2.101,5.1,4.86c0,2.7-1.979,4.859-5.159,4.859H200.295z M195.797,142.832v-29.34h9.121v29.34H195.797z"/>
		<path fill="#FFFFFF" d="M236.654,135.75c0,2.76,0.121,5.46,0.48,7.08h-8.221l-0.539-2.94h-0.18c-1.922,2.34-4.922,3.601-8.4,3.601
			c-5.939,0-9.48-4.32-9.48-9c0-7.62,6.84-11.221,17.221-11.221v-0.359c0-1.561-0.84-3.78-5.34-3.78c-3,0-6.18,1.02-8.1,2.16
			l-1.682-5.82c2.041-1.14,6.061-2.64,11.398-2.64c9.781,0,12.842,5.76,12.842,12.66V135.75L236.654,135.75z M227.834,128.971
			c-4.799,0-8.52,1.14-8.52,4.62c0,2.34,1.561,3.48,3.6,3.48c2.221,0,4.141-1.5,4.74-3.36c0.121-0.48,0.18-1.021,0.18-1.561V128.971
			z"/>
		<path fill="#FFFFFF" d="M243.914,100.23h9.121v42.601h-9.121V100.23z"/>
		<path fill="#FFFFFF" d="M87.113,195.332c0-3.84-0.12-7.08-0.24-9.84h7.92l0.42,4.08h0.12c2.16-3.061,5.52-4.74,9.78-4.74
			c6.42,0,12.18,5.58,12.18,14.939c0,10.681-6.78,15.72-13.32,15.72c-3.54,0-6.3-1.439-7.62-3.359h-0.12v14.58h-9.12V195.332z
			 M96.233,202.23c0,0.72,0.06,1.319,0.18,1.92c0.6,2.46,2.7,4.32,5.34,4.32c3.96,0,6.3-3.3,6.3-8.28c0-4.68-2.1-8.22-6.18-8.22
			c-2.58,0-4.86,1.92-5.46,4.62c-0.12,0.479-0.18,1.08-0.18,1.62V202.23L96.233,202.23z"/>
		<path fill="#FFFFFF" d="M136.668,215.491c-8.58,0-15.18-5.64-15.18-15.119c0-9.48,6.24-15.54,15.72-15.54
			c8.94,0,14.94,6.18,14.94,15.06c0,10.68-7.62,15.6-15.42,15.6H136.668z M136.848,208.952c3.6,0,5.82-3.541,5.82-8.82
			c0-4.32-1.68-8.76-5.82-8.76c-4.32,0-6,4.439-6,8.819c0,4.979,2.1,8.761,5.94,8.761H136.848z"/>
		<path fill="#FFFFFF" d="M157.789,172.23h9.12v42.601h-9.12V172.23z"/>
		<path fill="#FFFFFF" d="M178.728,181.65c-3.06,0-5.04-2.159-5.04-4.859c0-2.76,2.04-4.86,5.16-4.86c3.119,0,5.039,2.101,5.1,4.86
			c0,2.7-1.98,4.859-5.16,4.859H178.728z M174.228,214.831v-29.339h9.12v29.339H174.228z"/>
		<path fill="#FFFFFF" d="M212.688,214.11c-1.621,0.78-4.682,1.381-8.158,1.381c-9.482,0-15.542-5.82-15.542-15.061
			c0-8.58,5.88-15.6,16.802-15.6c2.396,0,5.039,0.42,6.959,1.14l-1.439,6.78c-1.08-0.48-2.699-0.9-5.1-0.9
			c-4.802,0-7.92,3.42-7.861,8.221c0,5.399,3.601,8.279,8.041,8.279c2.16,0,3.84-0.359,5.221-0.96L212.688,214.11z"/>
		<path fill="#FFFFFF" d="M225.459,185.491l4.381,14.399c0.48,1.739,1.08,3.899,1.439,5.46h0.18c0.42-1.561,0.9-3.78,1.32-5.46
			l3.6-14.399h9.781l-6.84,19.319c-4.201,11.64-7.021,16.26-10.32,19.2c-3.121,2.76-6.48,3.779-8.82,4.02l-1.92-7.68
			c1.141-0.24,2.58-0.78,3.959-1.561c1.381-0.72,2.941-2.22,3.781-3.66c0.299-0.479,0.48-0.899,0.48-1.319
			c0-0.3-0.061-0.78-0.361-1.5l-10.799-26.819H225.459z"/>
	</g>
</g>
</svg>
